<svg xmlns="http://www.w3.org/2000/svg" width="66" height="66" viewBox="0 0 66 66"><defs><style>.a,.c{fill:none;}.b{fill:#369;}.c{stroke:#369;stroke-width:2.5px;}.d{stroke:none;}</style></defs><g transform="translate(-498 -1599)"><g transform="translate(512 1609)"><path class="a" d="M0,0H40.735V40.735H0Z"/><path class="b" d="M33.051,30.635H4.2a1.7,1.7,0,1,0,0,3.395H33.051a1.7,1.7,0,0,0,0-3.395ZM4.214,18.092l26.868,7.2a2.549,2.549,0,0,0,1.324-4.922l-9.013-2.41L19.015,3.614a1.82,1.82,0,0,0-3.564.526V15.818L7,13.577,5.725,10.421a1.682,1.682,0,0,0-1.137-1l-.56-.153a.84.84,0,0,0-1.069.815v6.365A1.691,1.691,0,0,0,4.214,18.092Z" transform="translate(1.743 1.613)"/></g><g class="c" transform="translate(498 1599)"><circle class="d" cx="33" cy="33" r="33"/><circle class="a" cx="33" cy="33" r="31.75"/></g></g></svg>