<svg xmlns="http://www.w3.org/2000/svg" width="66" height="66" viewBox="0 0 66 66"><defs><style>.a,.b{fill:none;}.a{stroke:#369;stroke-width:2.5px;}.c{fill:#369;}.d{stroke:none;}</style></defs><g transform="translate(-788 -1599)"><g class="a" transform="translate(788 1599)"><circle class="d" cx="33" cy="33" r="33"/><circle class="b" cx="33" cy="33" r="31.75"/></g><g transform="translate(800 1610)"><path class="b" d="M0,0H43V43H0Z"/><path class="c" d="M22.711,1H15.544a1.792,1.792,0,0,0,0,3.583h7.167a1.792,1.792,0,1,0,0-3.583ZM19.127,24.292A1.8,1.8,0,0,0,20.919,22.5V15.333a1.792,1.792,0,1,0-3.583,0V22.5A1.8,1.8,0,0,0,19.127,24.292Zm12.6-11.843L33.067,11.1a1.779,1.779,0,0,0,0-2.508l-.018-.018a1.779,1.779,0,0,0-2.508,0L29.2,9.922A16.056,16.056,0,0,0,19.127,6.375,16.3,16.3,0,0,0,3,22.07a16.128,16.128,0,1,0,28.72-9.621Zm-12.6,22.593A12.542,12.542,0,1,1,31.669,22.5,12.532,12.532,0,0,1,19.127,35.042Z" transform="translate(2.373 0.792)"/></g></g></svg>