<svg xmlns="http://www.w3.org/2000/svg" width="66" height="66" viewBox="0 0 66 66"><defs><style>.a,.b{fill:none;}.a{stroke:#369;stroke-width:2.5px;}.c{fill:#369;}.d{stroke:none;}</style></defs><g transform="translate(-1073 -1599)"><g class="a" transform="translate(1073 1599)"><circle class="d" cx="33" cy="33" r="33"/><circle class="b" cx="33" cy="33" r="31.75"/></g><g transform="translate(1092 1615.214)"><path class="b" d="M0,0H32.572V32.572H0Z"/><path class="c" d="M27.786,19.073a1.46,1.46,0,0,0-.665-1.208L16.929,11.5V4.036a2.036,2.036,0,0,0-4.072,0V11.5L2.665,17.865A1.442,1.442,0,0,0,2,19.073,1.424,1.424,0,0,0,3.846,20.43l9.012-2.823v7.464L10.415,26.9a.651.651,0,0,0-.271.543v.8a.683.683,0,0,0,.869.651l3.882-1.113L18.775,28.9a.683.683,0,0,0,.869-.651v-.8a.651.651,0,0,0-.271-.543l-2.443-1.832V17.608l9.012,2.823A1.424,1.424,0,0,0,27.786,19.073Z" transform="translate(0.714 0.714)"/></g></g></svg>