<svg xmlns="http://www.w3.org/2000/svg" width="66" height="66" viewBox="0 0 66 66"><defs><style>.a,.c{fill:none;}.b{fill:#369;}.c{stroke:#369;stroke-width:2.5px;}.d{stroke:none;}</style></defs><g transform="translate(-205 -1599)"><g transform="translate(218.993 1610.36)"><path class="a" d="M0,0H38.015V38.015H0Z"/><path class="b" d="M31.239,27.94H4.312a1.584,1.584,0,1,0,0,3.168H31.239a1.584,1.584,0,1,0,0-3.168Zm2.487-14.826a2.39,2.39,0,0,0-2.914-1.679L22.4,13.685,12.169,4.149a1.679,1.679,0,0,0-1.616-.4,1.716,1.716,0,0,0-1.03,2.5l5.449,9.44L7.1,17.8,4.613,15.839a1.622,1.622,0,0,0-1.394-.285L2.7,15.7a.779.779,0,0,0-.475,1.156L5.2,22a1.607,1.607,0,0,0,1.774.744l25.058-6.716a2.4,2.4,0,0,0,1.695-2.914Z" transform="translate(1.232 2.155)"/></g><g class="c" transform="translate(205 1599)"><circle class="d" cx="33" cy="33" r="33"/><circle class="a" cx="33" cy="33" r="31.75"/></g></g></svg>